<svg id="Capa_1" data-name="Capa 1" xmlns="http://www.w3.org/2000/svg" viewBox="0 0 179.99 129.47"><title>discord</title><path d="M323.46,190.37s-12.9-13.66-42.18-15.63v4.31s16.06-.93,35.94,18.64c-15-10.8-36.41-17.56-60.19-17.56s-45.18,6.76-60.19,17.56c19.88-19.57,35.94-18.64,35.94-18.64v-4.31c-29.28,2-42.18,15.63-42.18,15.63C168.29,219.11,167,282,167,282c21,25.33,47.43,22.1,47.43,22.1l9.7-14c-12.51-3.39-21.44-11.16-26.81-17.21,15,10.59,36.17,17.21,59.68,17.21s44.71-6.62,59.69-17.21c-5.37,6.05-14.31,13.82-26.82,17.21l9.7,14S326,307.31,347,282C347,282,345.77,219.11,323.46,190.37ZM229,264.2c-8.43,0-15.27-7.27-15.27-16.23s6.84-16.22,15.27-16.22S244.28,239,244.28,248,237.44,264.2,229,264.2Zm56.05,0c-8.44,0-15.27-7.27-15.27-16.23s6.83-16.22,15.27-16.22S300.33,239,300.33,248,293.49,264.2,285.06,264.2Z" transform="translate(-167.03 -174.74)" style="fill:#fff"/></svg>